<svg xmlns="http://www.w3.org/2000/svg" xmlns:xlink="http://www.w3.org/1999/xlink" contentStyleType="text/css" data-diagram-type="DESCRIPTION" height="1407px" preserveAspectRatio="none" style="width:1847px;height:1407px;background:#FFFFFF;" version="1.1" viewBox="0 0 1847 1407" width="1847px" zoomAndPan="magnify"><title>OS Simulator - Detailed Overview</title><defs/><g><g class="title" data-source-line="1"><text fill="#000000" font-family="Courier" font-size="14" font-weight="bold" lengthAdjust="spacing" textLength="269.7188" x="781.6406" y="22.9951">OS&#160;Simulator&#160;-&#160;Detailed&#160;Overview</text></g><!--cluster SYSTEM--><g class="cluster" data-entity="SYSTEM" data-source-line="36" data-uid="ent0002" id="cluster_SYSTEM"><rect fill="#FFFFFF" height="1140" rx="2.5" ry="2.5" style="stroke:#424242;stroke-width:1;" width="1800.37" x="40.63" y="261.2969"/><text fill="#000000" font-family="Courier" font-size="12" font-style="italic" lengthAdjust="spacing" textLength="72.2461" x="904.692" y="274.4355">&#171;boundary&#187;</text><text fill="#000000" font-family="Courier" font-size="12" font-weight="bold" lengthAdjust="spacing" textLength="86.6953" x="897.4673" y="288.4043">OS&#160;Simulator</text></g><!--cluster APP--><g class="cluster" data-entity="APP" data-source-line="37" data-uid="ent0003" id="cluster_APP"><path d="M75.13,441.2969 L198.9484,441.2969 A3.75,3.75 0 0 1 201.4484,443.7969 L208.4484,461.2656 L635.92,461.2656 A2.5,2.5 0 0 1 638.42,463.7656 L638.42,570.7969 A2.5,2.5 0 0 1 635.92,573.2969 L75.13,573.2969 A2.5,2.5 0 0 1 72.63,570.7969 L72.63,443.7969 A2.5,2.5 0 0 1 75.13,441.2969" fill="#E8DAFF" style="stroke:#000000;stroke-width:1.5;"/><line style="stroke:#000000;stroke-width:1.5;" x1="72.63" x2="208.4484" y1="461.2656" y2="461.2656"/><text fill="#000000" font-family="Courier" font-size="12" font-weight="bold" lengthAdjust="spacing" textLength="122.8184" x="76.63" y="454.4355">Application&#160;Layer</text></g><!--cluster CORE--><g class="cluster" data-entity="CORE" data-source-line="50" data-uid="ent0012" id="cluster_CORE"><path d="M450.1,625.2969 L530.5707,625.2969 A3.75,3.75 0 0 1 533.0707,627.7969 L540.0707,645.2656 L1806.5,645.2656 A2.5,2.5 0 0 1 1809,647.7656 L1809,884.7969 A2.5,2.5 0 0 1 1806.5,887.2969 L450.1,887.2969 A2.5,2.5 0 0 1 447.6,884.7969 L447.6,627.7969 A2.5,2.5 0 0 1 450.1,625.2969" fill="#D6E5FA" style="stroke:#000000;stroke-width:1.5;"/><line style="stroke:#000000;stroke-width:1.5;" x1="447.6" x2="540.0707" y1="645.2656" y2="645.2656"/><text fill="#000000" font-family="Courier" font-size="12" font-weight="bold" lengthAdjust="spacing" textLength="79.4707" x="451.6" y="638.4355">Core&#160;Engine</text></g><!--cluster IOZONE--><g class="cluster" data-entity="IOZONE" data-source-line="69" data-uid="ent0027" id="cluster_IOZONE"><path d="M711.21,323.2969 L806.1299,323.2969 A3.75,3.75 0 0 1 808.6299,325.7969 L815.6299,343.2656 L1147.81,343.2656 A2.5,2.5 0 0 1 1150.31,345.7656 L1150.31,452.7969 A2.5,2.5 0 0 1 1147.81,455.2969 L711.21,455.2969 A2.5,2.5 0 0 1 708.71,452.7969 L708.71,325.7969 A2.5,2.5 0 0 1 711.21,323.2969" fill="#FDE7D6" style="stroke:#000000;stroke-width:1.5;"/><line style="stroke:#000000;stroke-width:1.5;" x1="708.71" x2="815.6299" y1="343.2656" y2="343.2656"/><text fill="#000000" font-family="Courier" font-size="12" font-weight="bold" lengthAdjust="spacing" textLength="93.9199" x="712.71" y="336.4355">I/O&#160;Subsystem</text></g><!--cluster MEM--><g class="cluster" data-entity="MEM" data-source-line="80" data-uid="ent0034" id="cluster_MEM"><path d="M711.21,1237.2969 L835.0284,1237.2969 A3.75,3.75 0 0 1 837.5284,1239.7969 L844.5284,1257.2656 L868.13,1257.2656 A2.5,2.5 0 0 1 870.63,1259.7656 L870.63,1366.7969 A2.5,2.5 0 0 1 868.13,1369.2969 L711.21,1369.2969 A2.5,2.5 0 0 1 708.71,1366.7969 L708.71,1239.7969 A2.5,2.5 0 0 1 711.21,1237.2969" fill="#E1F5E0" style="stroke:#000000;stroke-width:1.5;"/><line style="stroke:#000000;stroke-width:1.5;" x1="708.71" x2="844.5284" y1="1257.2656" y2="1257.2656"/><text fill="#000000" font-family="Courier" font-size="12" font-weight="bold" lengthAdjust="spacing" textLength="122.8184" x="712.71" y="1250.4355">Memory&#160;Management</text></g><!--cluster SCHEDZONE--><g class="cluster" data-entity="SCHEDZONE" data-source-line="89" data-uid="ent0039" id="cluster_SCHEDZONE"><path d="M717.44,987.2969 L870.1568,987.2969 A3.75,3.75 0 0 1 872.6568,989.7969 L879.6568,1007.2656 L1607.29,1007.2656 A2.5,2.5 0 0 1 1609.79,1009.7656 L1609.79,1194.7969 A2.5,2.5 0 0 1 1607.29,1197.2969 L717.44,1197.2969 A2.5,2.5 0 0 1 714.94,1194.7969 L714.94,989.7969 A2.5,2.5 0 0 1 717.44,987.2969" fill="#FFF2CC" style="stroke:#000000;stroke-width:1.5;"/><line style="stroke:#000000;stroke-width:1.5;" x1="714.94" x2="879.6568" y1="1007.2656" y2="1007.2656"/><text fill="#000000" font-family="Courier" font-size="12" font-weight="bold" lengthAdjust="spacing" textLength="151.7168" x="718.94" y="1000.4355">Scheduling&#160;Strategies</text></g><!--cluster External Interfaces--><g class="cluster" data-entity="External Interfaces" data-source-line="110" data-uid="ent0054" id="cluster_External Interfaces"><path d="M1459.21,43.2969 L1597.4776,43.2969 A3.75,3.75 0 0 1 1599.9776,45.7969 L1606.9776,63.2656 L1606.68,63.2656 A2.5,2.5 0 0 1 1609.18,65.7656 L1609.18,234.7969 A2.5,2.5 0 0 1 1606.68,237.2969 L1459.21,237.2969 A2.5,2.5 0 0 1 1456.71,234.7969 L1456.71,45.7969 A2.5,2.5 0 0 1 1459.21,43.2969" fill="#F8CECC" style="stroke:#000000;stroke-width:1.5;"/><line style="stroke:#000000;stroke-width:1.5;" x1="1456.71" x2="1606.9776" y1="63.2656" y2="63.2656"/><text fill="#000000" font-family="Courier" font-size="12" font-weight="bold" lengthAdjust="spacing" textLength="137.2676" x="1460.71" y="56.4355">External&#160;Interfaces</text></g><g class="entity" data-entity="GMN9" data-source-line="45" data-uid="ent0010" id="entity_GMN9"><path d="M209.98,597.3469 L209.98,649.2531 L411.5952,649.2531 L411.5952,607.3469 L401.5952,597.3469 L209.98,597.3469" fill="#FEFFDD" style="stroke:#181818;stroke-width:0.5;"/><path d="M401.5952,597.3469 L401.5952,607.3469 L411.5952,607.3469 L401.5952,597.3469" fill="#FEFFDD" style="stroke:#181818;stroke-width:1;"/><text fill="#000000" font-family="Courier" font-size="12" lengthAdjust="spacing" textLength="158.9414" x="215.98" y="613.4855">Orchestrates&#160;CLI&#160;flow,</text><text fill="#000000" font-family="Courier" font-size="12" lengthAdjust="spacing" textLength="144.4922" x="215.98" y="627.4543">scheduler&#160;selection,</text><text fill="#000000" font-family="Courier" font-size="12" lengthAdjust="spacing" textLength="180.6152" x="215.98" y="641.423">and&#160;simulation&#160;lifecycle.</text></g><g class="entity" data-entity="GMN24" data-source-line="64" data-uid="ent0025" id="entity_GMN24"><path d="M674.42,549.3469 L674.42,601.2531 L904.9337,601.2531 L904.9337,559.3469 L894.9337,549.3469 L674.42,549.3469" fill="#FEFFDD" style="stroke:#181818;stroke-width:0.5;"/><path d="M894.9337,549.3469 L894.9337,559.3469 L904.9337,559.3469 L894.9337,549.3469" fill="#FEFFDD" style="stroke:#181818;stroke-width:1;"/><text fill="#000000" font-family="Courier" font-size="12" lengthAdjust="spacing" textLength="209.5137" x="680.42" y="565.4855">Coordinates&#160;execution&#160;slices,</text><text fill="#000000" font-family="Courier" font-size="12" lengthAdjust="spacing" textLength="180.6152" x="680.42" y="579.4543">tracks&#160;process&#160;state,&#160;and</text><text fill="#000000" font-family="Courier" font-size="12" lengthAdjust="spacing" textLength="202.2891" x="680.42" y="593.423">produces&#160;scheduling&#160;metrics.</text></g><g class="entity" data-entity="GMN31" data-source-line="75" data-uid="ent0032" id="entity_GMN31"><path d="M968.54,479.3469 L968.54,531.2531 L1199.0537,531.2531 L1199.0537,489.3469 L1189.0537,479.3469 L968.54,479.3469" fill="#FEFFDD" style="stroke:#181818;stroke-width:0.5;"/><path d="M1189.0537,479.3469 L1189.0537,489.3469 L1199.0537,489.3469 L1189.0537,479.3469" fill="#FEFFDD" style="stroke:#181818;stroke-width:1;"/><text fill="#000000" font-family="Courier" font-size="12" lengthAdjust="spacing" textLength="187.8398" x="974.54" y="495.4855">Streams&#160;jobs&#160;from&#160;file&#160;and</text><text fill="#000000" font-family="Courier" font-size="12" lengthAdjust="spacing" textLength="209.5137" x="974.54" y="509.4543">builds&#160;process&#160;control&#160;blocks</text><text fill="#000000" font-family="Courier" font-size="12" lengthAdjust="spacing" textLength="122.8184" x="974.54" y="523.423">before&#160;admission.</text></g><g class="entity" data-entity="GMN36" data-source-line="84" data-uid="ent0037" id="entity_GMN36"><path d="M964.93,1333.3469 L964.93,1385.2531 L1202.6683,1385.2531 L1202.6683,1343.3469 L1192.6683,1333.3469 L964.93,1333.3469" fill="#FEFFDD" style="stroke:#181818;stroke-width:0.5;"/><path d="M1192.6683,1333.3469 L1192.6683,1343.3469 L1202.6683,1343.3469 L1192.6683,1333.3469" fill="#FEFFDD" style="stroke:#181818;stroke-width:1;"/><text fill="#000000" font-family="Courier" font-size="12" lengthAdjust="spacing" textLength="216.7383" x="970.93" y="1349.4855">Simulates&#160;main&#160;memory&#160;capacity</text><text fill="#000000" font-family="Courier" font-size="12" lengthAdjust="spacing" textLength="202.2891" x="970.93" y="1363.4543">and&#160;allocation&#160;decisions&#160;for</text><text fill="#000000" font-family="Courier" font-size="12" lengthAdjust="spacing" textLength="137.2676" x="970.93" y="1377.423">incoming&#160;processes.</text></g><g class="entity" data-entity="GMN47" data-source-line="99" data-uid="ent0048" id="entity_GMN47"><path d="M972.15,911.3469 L972.15,963.2531 L1195.4391,963.2531 L1195.4391,921.3469 L1185.4391,911.3469 L972.15,911.3469" fill="#FEFFDD" style="stroke:#181818;stroke-width:0.5;"/><path d="M1185.4391,911.3469 L1185.4391,921.3469 L1195.4391,921.3469 L1185.4391,911.3469" fill="#FEFFDD" style="stroke:#181818;stroke-width:1;"/><text fill="#000000" font-family="Courier" font-size="12" lengthAdjust="spacing" textLength="187.8398" x="978.15" y="927.4855">Implements&#160;interchangeable</text><text fill="#000000" font-family="Courier" font-size="12" lengthAdjust="spacing" textLength="202.2891" x="978.15" y="941.4543">CPU&#160;scheduling&#160;policies&#160;that</text><text fill="#000000" font-family="Courier" font-size="12" lengthAdjust="spacing" textLength="151.7168" x="978.15" y="955.423">consume&#160;ready&#160;queues.</text></g><!--entity MAIN--><g class="entity" data-entity="MAIN" data-source-line="38" data-uid="ent0004" id="entity_MAIN"><rect fill="#E8DAFF" height="33.9688" rx="2.5" ry="2.5" style="stroke:#424242;stroke-width:0.5;" width="48.8984" x="96.63" y="481.3169"/><text fill="#141414" font-family="Courier" font-size="12" lengthAdjust="spacing" textLength="28.8984" x="106.63" y="502.4555">Main</text></g><!--entity SR--><g class="entity" data-entity="SR" data-source-line="39" data-uid="ent0005" id="entity_SR"><rect fill="#E8DAFF" height="33.9688" rx="2.5" ry="2.5" style="stroke:#424242;stroke-width:0.5;" width="135.5938" x="242.99" y="481.3169"/><text fill="#141414" font-family="Courier" font-size="12" lengthAdjust="spacing" textLength="115.5938" x="252.99" y="502.4555">SimulationRunner</text></g><!--entity SC--><g class="entity" data-entity="SC" data-source-line="40" data-uid="ent0006" id="entity_SC"><rect fill="#E8DAFF" height="33.9688" rx="2.5" ry="2.5" style="stroke:#424242;stroke-width:0.5;" width="142.8184" x="471.6" y="481.3169"/><text fill="#141414" font-family="Courier" font-size="12" lengthAdjust="spacing" textLength="122.8184" x="481.6" y="502.4555">SimulationContext</text></g><!--entity SCH--><g class="entity" data-entity="SCH" data-source-line="51" data-uid="ent0013" id="entity_SCH"><rect fill="#D6E5FA" height="33.9688" rx="2.5" ry="2.5" style="stroke:#424242;stroke-width:0.5;" width="142.8184" x="471.6" y="759.3169"/><text fill="#141414" font-family="Courier" font-size="12" lengthAdjust="spacing" textLength="122.8184" x="481.6" y="780.4555">SystemCallHandler</text></g><!--entity CLK--><g class="entity" data-entity="CLK" data-source-line="52" data-uid="ent0014" id="entity_CLK"><rect fill="#D6E5FA" height="33.9688" rx="2.5" ry="2.5" style="stroke:#424242;stroke-width:0.5;" width="128.3691" x="725.49" y="665.3169"/><text fill="#141414" font-family="Courier" font-size="12" lengthAdjust="spacing" textLength="108.3691" x="735.49" y="686.4555">SimulationClock</text></g><!--entity PCB--><g class="entity" data-entity="PCB" data-source-line="53" data-uid="ent0015" id="entity_PCB"><rect fill="#D6E5FA" height="33.9688" rx="2.5" ry="2.5" style="stroke:#424242;stroke-width:0.5;" width="157.2676" x="1005.17" y="665.3169"/><text fill="#141414" font-family="Courier" font-size="12" lengthAdjust="spacing" textLength="137.2676" x="1015.17" y="686.4555">ProcessControlBlock</text></g><!--entity SLICE--><g class="entity" data-entity="SLICE" data-source-line="54" data-uid="ent0016" id="entity_SLICE"><rect fill="#D6E5FA" height="33.9688" rx="2.5" ry="2.5" style="stroke:#424242;stroke-width:0.5;" width="121.1445" x="1273.5" y="665.3169"/><text fill="#141414" font-family="Courier" font-size="12" lengthAdjust="spacing" textLength="101.1445" x="1283.5" y="686.4555">ExecutionSlice</text></g><!--entity REPORT--><g class="entity" data-entity="REPORT" data-source-line="55" data-uid="ent0017" id="entity_REPORT"><rect fill="#D6E5FA" height="33.9688" rx="2.5" ry="2.5" style="stroke:#424242;stroke-width:0.5;" width="113.9199" x="1475.49" y="665.3169"/><text fill="#141414" font-family="Courier" font-size="12" lengthAdjust="spacing" textLength="93.9199" x="1485.49" y="686.4555">ProcessReport</text></g><!--entity SRES--><g class="entity" data-entity="SRES" data-source-line="56" data-uid="ent0018" id="entity_SRES"><rect fill="#D6E5FA" height="33.9688" rx="2.5" ry="2.5" style="stroke:#424242;stroke-width:0.5;" width="135.5938" x="1649.41" y="665.3169"/><text fill="#141414" font-family="Courier" font-size="12" lengthAdjust="spacing" textLength="115.5938" x="1659.41" y="686.4555">SchedulingResult</text></g><!--entity PL--><g class="entity" data-entity="PL" data-source-line="70" data-uid="ent0028" id="entity_PL"><rect fill="#FDE7D6" height="33.9688" rx="2.5" ry="2.5" style="stroke:#424242;stroke-width:0.5;" width="113.9199" x="732.71" y="363.3169"/><text fill="#141414" font-family="Courier" font-size="12" lengthAdjust="spacing" textLength="93.9199" x="742.71" y="384.4555">ProcessLoader</text></g><!--entity JR--><g class="entity" data-entity="JR" data-source-line="71" data-uid="ent0029" id="entity_JR"><rect fill="#FDE7D6" height="33.9688" rx="2.5" ry="2.5" style="stroke:#424242;stroke-width:0.5;" width="85.0215" x="1041.29" y="363.3169"/><text fill="#141414" font-family="Courier" font-size="12" lengthAdjust="spacing" textLength="65.0215" x="1051.29" y="384.4555">JobReader</text></g><!--entity MM--><g class="entity" data-entity="MM" data-source-line="81" data-uid="ent0035" id="entity_MM"><rect fill="#E1F5E0" height="33.9688" rx="2.5" ry="2.5" style="stroke:#424242;stroke-width:0.5;" width="113.9199" x="732.71" y="1277.3169"/><text fill="#141414" font-family="Courier" font-size="12" lengthAdjust="spacing" textLength="93.9199" x="742.71" y="1298.4555">MemoryManager</text></g><!--entity SCHED--><g class="entity" data-entity="SCHED" data-source-line="90" data-uid="ent0040" id="entity_SCHED"><rect fill="#FFF2CC" height="47.9375" rx="2.5" ry="2.5" style="stroke:#424242;stroke-width:0.5;" width="101.4707" x="738.94" y="1064.3269"/><text fill="#424242" font-family="Courier" font-size="12" font-style="italic" lengthAdjust="spacing" textLength="79.4707" x="749.94" y="1085.4655">&#171;interface&#187;</text><text fill="#141414" font-family="Courier" font-size="12" lengthAdjust="spacing" textLength="65.0215" x="757.1646" y="1099.4343">Scheduler</text></g><!--entity RR--><g class="entity" data-entity="RR" data-source-line="91" data-uid="ent0041" id="entity_RR"><rect fill="#FFF2CC" height="33.9688" rx="2.5" ry="2.5" style="stroke:#424242;stroke-width:0.5;" width="157.2676" x="1005.17" y="1139.3169"/><text fill="#141414" font-family="Courier" font-size="12" lengthAdjust="spacing" textLength="137.2676" x="1015.17" y="1160.4555">RoundRobinScheduler</text></g><!--entity PS--><g class="entity" data-entity="PS" data-source-line="92" data-uid="ent0042" id="entity_PS"><rect fill="#FFF2CC" height="33.9688" rx="2.5" ry="2.5" style="stroke:#424242;stroke-width:0.5;" width="142.8184" x="1262.67" y="1087.3169"/><text fill="#141414" font-family="Courier" font-size="12" lengthAdjust="spacing" textLength="122.8184" x="1272.67" y="1108.4555">PriorityScheduler</text></g><!--entity SJF--><g class="entity" data-entity="SJF" data-source-line="93" data-uid="ent0043" id="entity_SJF"><rect fill="#FFF2CC" height="33.9688" rx="2.5" ry="2.5" style="stroke:#424242;stroke-width:0.5;" width="106.6953" x="1479.1" y="1061.3169"/><text fill="#141414" font-family="Courier" font-size="12" lengthAdjust="spacing" textLength="86.6953" x="1489.1" y="1082.4555">SjfScheduler</text></g><!--entity JOB--><g class="entity" data-entity="JOB" data-source-line="111" data-uid="ent0055" id="entity_JOB"><rect fill="#F8CECC" height="47.9375" rx="2.5" ry="2.5" style="stroke:#424242;stroke-width:0.5;" width="70.5723" x="1497.16" y="173.3269"/><text fill="#424242" font-family="Courier" font-size="12" font-style="italic" lengthAdjust="spacing" textLength="43.3477" x="1510.7723" y="194.4655">&#171;file&#187;</text><text fill="#141414" font-family="Courier" font-size="12" lengthAdjust="spacing" textLength="50.5723" x="1507.16" y="208.4343">job.txt</text></g><!--entity CONSOLE--><g class="entity" data-entity="CONSOLE" data-source-line="112" data-uid="ent0056" id="entity_CONSOLE"><rect fill="#F8CECC" height="47.9375" rx="2.5" ry="2.5" style="stroke:#424242;stroke-width:0.5;" width="99.4707" x="1482.71" y="75.3269"/><text fill="#424242" font-family="Courier" font-size="12" font-style="italic" lengthAdjust="spacing" textLength="72.2461" x="1496.3223" y="96.4655">&#171;external&#187;</text><text fill="#141414" font-family="Courier" font-size="12" lengthAdjust="spacing" textLength="79.4707" x="1492.71" y="110.4343">Console&#160;I/O</text></g><!--entity USER--><g class="entity" data-entity="USER" data-source-line="115" data-uid="ent0057" id="entity_USER"><ellipse cx="121.0884" cy="133.8169" fill="#F8CECC" rx="8" ry="8" style="stroke:#181818;stroke-width:0.5;"/><path d="M121.0884,141.8169 L121.0884,168.8169 M108.0884,149.8169 L134.0884,149.8169 M121.0884,168.8169 L108.0884,183.8169 M121.0884,168.8169 L134.0884,183.8169" fill="none" style="stroke:#181818;stroke-width:0.5;"/><text fill="#000000" font-family="Courier" font-size="12" lengthAdjust="spacing" textLength="57.7969" x="92.19" y="196.4555">CLI&#160;User</text></g><!--link MAIN to SR--><!--link MAIN to SR--><g class="link" data-entity-1="MAIN" data-entity-2="SR" data-source-line="120" data-uid="lnk62" id="link_MAIN_SR"><path d="M145.88,492.6369 C170.39,492.6369 202.99,492.6369 236.69,492.6369" fill="none" id="MAIN-to-SR-1" style="stroke:#1F1F1F;stroke-width:1.3;"/><polygon fill="#1F1F1F" points="242.69,492.6369,233.69,488.6369,237.69,492.6369,233.69,496.6369,242.69,492.6369" style="stroke:#1F1F1F;stroke-width:1.3;"/><text fill="#5B3D91" font-family="Courier" font-size="11" lengthAdjust="spacing" textLength="99.3384" x="94.29" y="489.8473">orchestrate&#160;run</text></g><!--link SR to SC--><!--link SR to SC--><g class="link" data-entity-1="SR" data-entity-2="SC" data-source-line="121" data-uid="lnk63" id="link_SR_SC"><path d="M378.89,492.6369 C407.93,492.6369 435.84,492.6369 465.27,492.6369" fill="none" id="SR-to-SC-1" style="stroke:#1F1F1F;stroke-width:1.3;"/><polygon fill="#1F1F1F" points="471.27,492.6369,462.27,488.6369,466.27,492.6369,462.27,496.6369,471.27,492.6369" style="stroke:#1F1F1F;stroke-width:1.3;"/><text fill="#5B3D91" font-family="Courier" font-size="11" lengthAdjust="spacing" textLength="125.8286" x="299.08" y="489.8473">bootstrap&#160;&amp;&#160;monitor</text></g><!--link APP to GMN9--><g class="link" data-entity-1="APP" data-entity-2="GMN9" data-source-line="45" data-uid="lnk11" id="link_APP_GMN9"><path d="M227,573.3698 C227,573.4131 227,573.4564 227,573.4999 C227,573.5869 227,573.6743 227,573.7623 C227,573.9384 227,574.1164 227,574.2965 C227,574.6567 227,575.0249 227,575.4006 C227,581.4119 227,589.3419 227,597.0169" fill="none" id="APP-GMN9" style="stroke:#1F1F1F;stroke-width:1.3;stroke-dasharray:7,7;"/></g><!--link SCH to CLK--><!--link SCH to CLK--><g class="link" data-entity-1="SCH" data-entity-2="CLK" data-source-line="127" data-uid="lnk69" id="link_SCH_CLK"><path d="M614.88,769.0169 C667.95,769.0169 731,769.0169 731,769.0169 C731,769.0169 731,730.7069 731,705.4269" fill="none" id="SCH-to-CLK-1" style="stroke:#1F1F1F;stroke-width:1.3;"/><polygon fill="#1F1F1F" points="731,699.4269,727,708.4269,731,704.4269,735,708.4269,731,699.4269" style="stroke:#1F1F1F;stroke-width:1.3;"/><text fill="#0F3E8A" font-family="Courier" font-size="11" lengthAdjust="spacing" textLength="66.2256" x="640.74" y="780.2273">tick&#160;clock</text></g><!--link CLK to PCB--><!--link PCB to SLICE--><!--link SLICE to REPORT--><!--link REPORT to SRES--><!--link REPORT to SRES--><g class="link" data-entity-1="REPORT" data-entity-2="SRES" data-source-line="135" data-uid="lnk77" id="link_REPORT_SRES"><path d="M1589.89,676.6369 C1608.64,676.6369 1623.64,676.6369 1643.1,676.6369" fill="none" id="REPORT-to-SRES-1" style="stroke:#1F1F1F;stroke-width:1.3;"/><polygon fill="#1F1F1F" points="1649.1,676.6369,1640.1,672.6369,1644.1,676.6369,1640.1,680.6369,1649.1,676.6369" style="stroke:#1F1F1F;stroke-width:1.3;"/><text fill="#0F3E8A" font-family="Courier" font-size="11" lengthAdjust="spacing" textLength="99.3384" x="1519.49" y="673.8473">aggregate&#160;cycle</text></g><!--link CORE to GMN24--><g class="link" data-entity-1="CORE" data-entity-2="GMN24" data-source-line="64" data-uid="lnk26" id="link_CORE_GMN24"><path d="M700,644.7174 C700,642.1263 700,617.6838 700,615.2501 C700,610.3826 700,605.8463 700,601.7069" fill="none" id="CORE-GMN24" style="stroke:#1F1F1F;stroke-width:1.3;stroke-dasharray:7,7;"/></g><!--link PL to JR--><!--link PL to JR--><g class="link" data-entity-1="PL" data-entity-2="JR" data-source-line="123" data-uid="lnk65" id="link_PL_JR"><path d="M847.08,371.8069 C903.92,371.8069 983.66,371.8069 1034.85,371.8069" fill="none" id="PL-to-JR-1" style="stroke:#1F1F1F;stroke-width:1.3;"/><polygon fill="#1F1F1F" points="1040.85,371.8069,1031.85,367.8069,1035.85,371.8069,1031.85,375.8069,1040.85,371.8069" style="stroke:#1F1F1F;stroke-width:1.3;"/><text fill="#9C4E2F" font-family="Courier" font-size="11" lengthAdjust="spacing" textLength="112.5835" x="944.96" y="369.0173">read&#160;&amp;&#160;parse&#160;jobs</text></g><!--link IOZONE to GMN31--><g class="link" data-entity-1="IOZONE" data-entity-2="GMN31" data-source-line="75" data-uid="lnk33" id="link_IOZONE_GMN31"><path d="M790,455.4164 C790,456.6214 790,457.9282 790,459.3141 C790,464.8575 790,471.6656 790,478.2794 C790,491.5069 790,503.9569 790,503.9569 C790,503.9569 885.89,503.9569 968.1,503.9569" fill="none" id="IOZONE-GMN31" style="stroke:#1F1F1F;stroke-width:1.3;stroke-dasharray:7,7;"/></g><!--link MEM to GMN36--><g class="link" data-entity-1="MEM" data-entity-2="GMN36" data-source-line="84" data-uid="lnk38" id="link_MEM_GMN36"><path d="M870.7058,1361.2969 C870.9826,1361.2969 871.2597,1361.2969 871.5372,1361.2969 C873.7572,1361.2969 876.0021,1361.2969 878.2691,1361.2969 C887.3372,1361.2969 896.7596,1361.2969 906.3627,1361.2969 C925.5688,1361.2969 945.4975,1361.2969 964.76,1361.2969" fill="none" id="MEM-GMN36" style="stroke:#1F1F1F;stroke-width:1.3;stroke-dasharray:7,7;"/></g><!--link SCHED to RR--><!--reverse link SCHED to RR--><g class="link" data-entity-1="SCHED" data-entity-2="RR" data-source-line="129" data-uid="lnk71" id="link_SCHED_RR"><path d="M807,1130.5769 C807,1148.0769 807,1150.6369 807,1150.6369 C807,1150.6369 923.04,1150.6369 1004.85,1150.6369" fill="none" id="SCHED-backto-RR" style="stroke:#1F1F1F;stroke-width:1.3;stroke-dasharray:7,7;"/><polygon fill="none" points="807,1112.5769,801,1130.5769,813,1130.5769,807,1112.5769" style="stroke:#1F1F1F;stroke-width:1.3;"/></g><!--link RR to PS--><!--link PS to SJF--><!--link SCHEDZONE to GMN47--><g class="link" data-entity-1="SCHEDZONE" data-entity-2="GMN47" data-source-line="99" data-uid="lnk49" id="link_SCHEDZONE_GMN47"><path d="M989,1007.0304 C989,1006.3715 989,984.7542 989,984.0852 C989,982.747 989,981.3905 989,980.0233 C989,974.5544 989,968.9144 989,963.5969" fill="none" id="SCHEDZONE-GMN47" style="stroke:#1F1F1F;stroke-width:1.3;stroke-dasharray:7,7;"/></g><!--link APP to CORE--><!--link CORE to SCHEDZONE--><!--link APP to IOZONE--><!--link CORE to MEM--><!--link USER to MAIN--><g class="link" data-entity-1="USER" data-entity-2="MAIN" data-source-line="117" data-uid="lnk58" id="link_USER_MAIN"><path d="M113,199.5369 C113,271.8169 113,422.5869 113,474.9069" fill="none" id="USER-to-MAIN" style="stroke:#1F1F1F;stroke-width:1.3;"/><polygon fill="#1F1F1F" points="113,480.9069,117,471.9069,113,475.9069,109,471.9069,113,480.9069" style="stroke:#1F1F1F;stroke-width:1.3;"/><text fill="#5B3D91" font-family="Courier" font-size="11" lengthAdjust="spacing" textLength="105.9609" x="7" y="351.4273">select&#160;algorithm</text></g><!--link MAIN to CONSOLE--><g class="link" data-entity-1="MAIN" data-entity-2="CONSOLE" data-source-line="118" data-uid="lnk59" id="link_MAIN_CONSOLE"><path d="M130,481.0569 C130,472.4369 130,463.8169 130,463.8169 C130,463.8169 1490,463.8169 1490,463.8169 C1490,463.8169 1490,210.9069 1490,129.4969" fill="none" id="MAIN-to-CONSOLE" style="stroke:#1F1F1F;stroke-width:1.3;"/><polygon fill="#1F1F1F" points="1490,123.4969,1486,132.4969,1490,128.4969,1494,132.4969,1490,123.4969" style="stroke:#1F1F1F;stroke-width:1.3;"/><text fill="#A34747" font-family="Courier" font-size="11" lengthAdjust="spacing" textLength="132.4512" x="838.54" y="475.0273">emit&#160;menus&#160;&amp;&#160;metrics</text></g><!--reverse link USER to CONSOLE--><g class="link" data-entity-1="USER" data-entity-2="CONSOLE" data-source-line="119" data-uid="lnk61" id="link_USER_CONSOLE"><path d="M156.24,149.3169 C354.2,149.3169 1487,149.3169 1487,149.3169 C1487,149.3169 1487,136.4169 1487,123.7269" fill="none" id="USER-backto-CONSOLE" style="stroke:#1F1F1F;stroke-width:1.3;"/><polygon fill="#1F1F1F" points="150.24,149.3169,159.24,153.3169,155.24,149.3169,159.24,145.3169,150.24,149.3169" style="stroke:#1F1F1F;stroke-width:1.3;"/><text fill="#A34747" font-family="Courier" font-size="11" lengthAdjust="spacing" textLength="72.8481" x="758.42" y="160.5273">show&#160;output</text></g><!--link SC to PL--><g class="link" data-entity-1="SC" data-entity-2="PL" data-source-line="122" data-uid="lnk64" id="link_SC_PL"><path d="M614.69,492.6369 C678.22,492.6369 761,492.6369 761,492.6369 C761,492.6369 761,434.7869 761,403.3569" fill="none" id="SC-to-PL" style="stroke:#1F1F1F;stroke-width:1.3;"/><polygon fill="#1F1F1F" points="761,397.3569,757,406.3569,761,402.3569,765,406.3569,761,397.3569" style="stroke:#1F1F1F;stroke-width:1.3;"/><text fill="#9C4E2F" font-family="Courier" font-size="11" lengthAdjust="spacing" textLength="99.3384" x="635.48" y="503.8473">request&#160;batches</text></g><!--link PL to PCB--><g class="link" data-entity-1="PL" data-entity-2="PCB" data-source-line="124" data-uid="lnk66" id="link_PL_PCB"><path d="M847.11,388.7869 C887.73,388.7869 935,388.7869 935,388.7869 C935,388.7869 935,676.6369 935,676.6369 C935,676.6369 963.35,676.6369 999.04,676.6369" fill="none" id="PL-to-PCB" style="stroke:#1F1F1F;stroke-width:1.3;"/><polygon fill="#1F1F1F" points="1005.04,676.6369,996.04,672.6369,1000.04,676.6369,996.04,680.6369,1005.04,676.6369" style="stroke:#1F1F1F;stroke-width:1.3;"/><text fill="#0F3E8A" font-family="Courier" font-size="11" lengthAdjust="spacing" textLength="99.3384" x="835" y="534.9973">instantiate&#160;PCB</text></g><!--link PL to MM--><g class="link" data-entity-1="PL" data-entity-2="MM" data-source-line="125" data-uid="lnk67" id="link_PL_MM"><path d="M732.49,380.2969 C692.06,380.2969 645,380.2969 645,380.2969 C645,380.2969 645,1288.6369 645,1288.6369 C645,1288.6369 686.06,1288.6369 726.49,1288.6369" fill="none" id="PL-to-MM" style="stroke:#1F1F1F;stroke-width:1.3;"/><polygon fill="#1F1F1F" points="732.49,1288.6369,723.49,1284.6369,727.49,1288.6369,723.49,1292.6369,732.49,1288.6369" style="stroke:#1F1F1F;stroke-width:1.3;"/><text fill="#2F6F36" font-family="Courier" font-size="11" lengthAdjust="spacing" textLength="99.3384" x="545" y="845.6773">allocate&#160;memory</text></g><!--link SC to SCH--><g class="link" data-entity-1="SC" data-entity-2="SCH" data-source-line="126" data-uid="lnk68" id="link_SC_SCH"><path d="M520,515.6869 C520,565.6169 520,702.9969 520,752.9169" fill="none" id="SC-to-SCH" style="stroke:#1F1F1F;stroke-width:1.3;"/><polygon fill="#1F1F1F" points="520,758.9169,524,749.9169,520,753.9169,516,749.9169,520,758.9169" style="stroke:#1F1F1F;stroke-width:1.3;"/><text fill="#0F3E8A" font-family="Courier" font-size="11" lengthAdjust="spacing" textLength="92.7158" x="427" y="648.5073">dispatch&#160;calls</text></g><!--link SCH to SCHED--><g class="link" data-entity-1="SCH" data-entity-2="SCHED" data-source-line="128" data-uid="lnk70" id="link_SCH_SCHED"><path d="M614.76,788.4269 C679.29,788.4269 764,788.4269 764,788.4269 C764,788.4269 764,986.6269 764,1058.0069" fill="none" id="SCH-to-SCHED" style="stroke:#1F1F1F;stroke-width:1.3;"/><polygon fill="#1F1F1F" points="764,1064.0069,768,1055.0069,764,1059.0069,760,1055.0069,764,1064.0069" style="stroke:#1F1F1F;stroke-width:1.3;"/><text fill="#A68A00" font-family="Courier" font-size="11" lengthAdjust="spacing" textLength="92.7158" x="671" y="862.8073">schedule&#160;ready</text></g><!--reverse link SCHED to PS--><g class="link" data-entity-1="SCHED" data-entity-2="PS" data-source-line="130" data-uid="lnk72" id="link_SCHED_PS"><path d="M858.89,1099.7869 C956.43,1099.7869 1151.04,1099.7869 1262.55,1099.7869" fill="none" id="SCHED-backto-PS" style="stroke:#1F1F1F;stroke-width:1.3;stroke-dasharray:7,7;"/><polygon fill="none" points="840.89,1099.7869,858.89,1105.7869,858.89,1093.7869,840.89,1099.7869" style="stroke:#1F1F1F;stroke-width:1.3;"/></g><!--reverse link SCHED to SJF--><g class="link" data-entity-1="SCHED" data-entity-2="SJF" data-source-line="131" data-uid="lnk73" id="link_SCHED_SJF"><path d="M858.73,1075.8169 C993.68,1075.8169 1340.94,1075.8169 1478.8,1075.8169" fill="none" id="SCHED-backto-SJF" style="stroke:#1F1F1F;stroke-width:1.3;stroke-dasharray:7,7;"/><polygon fill="none" points="840.73,1075.8169,858.73,1081.8169,858.73,1069.8169,840.73,1075.8169" style="stroke:#1F1F1F;stroke-width:1.3;"/></g><!--link SCH to SLICE--><g class="link" data-entity-1="SCH" data-entity-2="SLICE" data-source-line="132" data-uid="lnk74" id="link_SCH_SLICE"><path d="M614.69,778.7269 C809.64,778.7269 1335,778.7269 1335,778.7269 C1335,778.7269 1335,733.2669 1335,705.5369" fill="none" id="SCH-to-SLICE" style="stroke:#1F1F1F;stroke-width:1.3;"/><polygon fill="#1F1F1F" points="1335,699.5369,1331,708.5369,1335,704.5369,1339,708.5369,1335,699.5369" style="stroke:#1F1F1F;stroke-width:1.3;"/><text fill="#0F3E8A" font-family="Courier" font-size="11" lengthAdjust="spacing" textLength="86.0933" x="927.44" y="789.9373">slice&#160;quantum</text></g><!--link SCH to MM--><g class="link" data-entity-1="SCH" data-entity-2="MM" data-source-line="133" data-uid="lnk75" id="link_SCH_MM"><path d="M580,793.7169 C580,884.5869 580,1299.9569 580,1299.9569 C580,1299.9569 664.3,1299.9569 726.38,1299.9569" fill="none" id="SCH-to-MM" style="stroke:#1F1F1F;stroke-width:1.3;"/><polygon fill="#1F1F1F" points="732.38,1299.9569,723.38,1295.9569,727.38,1299.9569,723.38,1303.9569,732.38,1299.9569" style="stroke:#1F1F1F;stroke-width:1.3;"/><text fill="#2F6F36" font-family="Courier" font-size="11" lengthAdjust="spacing" textLength="112.5835" x="467" y="1134.2373">manage&#160;mem&#160;events</text></g><!--link SCH to REPORT--><g class="link" data-entity-1="SCH" data-entity-2="REPORT" data-source-line="134" data-uid="lnk76" id="link_SCH_REPORT"><path d="M614.6,783.5769 C842.01,783.5769 1533,783.5769 1533,783.5769 C1533,783.5769 1533,734.3769 1533,705.4769" fill="none" id="SCH-to-REPORT" style="stroke:#1F1F1F;stroke-width:1.3;"/><polygon fill="#1F1F1F" points="1533,699.4769,1529,708.4769,1533,704.4769,1537,708.4769,1533,699.4769" style="stroke:#1F1F1F;stroke-width:1.3;"/><text fill="#0F3E8A" font-family="Courier" font-size="11" lengthAdjust="spacing" textLength="99.3384" x="1015.85" y="794.7873">persist&#160;metrics</text></g><!--link SCH to PCB--><g class="link" data-entity-1="SCH" data-entity-2="PCB" data-source-line="136" data-uid="lnk78" id="link_SCH_PCB"><path d="M614.85,773.8669 C762.01,773.8669 1084,773.8669 1084,773.8669 C1084,773.8669 1084,732.0469 1084,705.5169" fill="none" id="SCH-to-PCB" style="stroke:#1F1F1F;stroke-width:1.3;"/><polygon fill="#1F1F1F" points="1084,699.5169,1080,708.5169,1084,704.5169,1088,708.5169,1084,699.5169" style="stroke:#1F1F1F;stroke-width:1.3;"/><text fill="#0F3E8A" font-family="Courier" font-size="11" lengthAdjust="spacing" textLength="79.4707" x="806.6" y="785.0773">update&#160;state</text></g><!--link SC to REPORT--><g class="link" data-entity-1="SC" data-entity-2="REPORT" data-source-line="137" data-uid="lnk79" id="link_SC_REPORT"><path d="M567,515.3769 C567,527.0069 567,540.2969 567,540.2969 C567,540.2969 1480,540.2969 1480,540.2969 C1480,540.2969 1480,620.9669 1480,658.8869" fill="none" id="SC-to-REPORT" style="stroke:#1F1F1F;stroke-width:1.3;"/><polygon fill="#1F1F1F" points="1480,664.8869,1484,655.8869,1480,659.8869,1476,655.8869,1480,664.8869" style="stroke:#1F1F1F;stroke-width:1.3;"/><text fill="#0F3E8A" font-family="Courier" font-size="11" lengthAdjust="spacing" textLength="86.0933" x="986.34" y="551.5073">summarize&#160;sim</text></g><!--link JR to JOB--><g class="link" data-entity-1="JR" data-entity-2="JOB" data-source-line="138" data-uid="lnk80" id="link_JR_JOB"><path d="M1126.46,380.2969 C1238.59,380.2969 1533,380.2969 1533,380.2969 C1533,380.2969 1533,277.3769 1533,227.5969" fill="none" id="JR-to-JOB" style="stroke:#1F1F1F;stroke-width:1.3;"/><polygon fill="#1F1F1F" points="1533,221.5969,1529,230.5969,1533,226.5969,1537,230.5969,1533,221.5969" style="stroke:#1F1F1F;stroke-width:1.3;"/><text fill="#A34747" font-family="Courier" font-size="11" lengthAdjust="spacing" textLength="72.8481" x="1336.08" y="391.5073">stream&#160;jobs</text></g><!--link REPORT to CONSOLE--><g class="link" data-entity-1="REPORT" data-entity-2="CONSOLE" data-source-line="139" data-uid="lnk81" id="link_REPORT_CONSOLE"><path d="M1494,664.8469 C1494,581.1969 1494,227.2869 1494,129.7569" fill="none" id="REPORT-to-CONSOLE" style="stroke:#1F1F1F;stroke-width:1.3;"/><polygon fill="#1F1F1F" points="1494,123.7569,1490,132.7569,1494,128.7569,1498,132.7569,1494,123.7569" style="stroke:#1F1F1F;stroke-width:1.3;"/><text fill="#A34747" font-family="Courier" font-size="11" lengthAdjust="spacing" textLength="92.7158" x="1401" y="405.5073">emit&#160;summaries</text></g><!--SRC=[ZLTDSzis43sBlm9Zp_GKk_wEaybeHgR9YLtRqf39eUtq094h2J49i00OHqtptxiBVeWKwRRMHG8UWDstks_NLjWCs3nciSZBZ5kbsH6x1Sj51YcRVmNzLS2Bvvbd8GkkUSw-UvCbJvxNMfKozLM69mv3z-TDCY71RWjWIjkDyYQ9oWibGThORl4P3OdbSfs1Dp4RdgeN8TTinJE32ociU9dPK4dxn7DWlYgr0DtRYCLVm4xFElUIDPFUbljLctLwGHzSkr4w1LslNfpH1rTZ2neKsTivq-p-s7_bfk_qXm_m3SzBdasdIC2r7_Z-66g5H7OHU6zBGtNlg6s3UvRqdUkjkwkc6-yg4CVNiE1fIcJso8bnanOlJho9L2aOADWbVjTSFjFtA_m-qrgzD7I5zAdNkZJkhrTadzOhdpOYUPPW33izFlT-U5u6AykiObgiDvQbWlmLIdhUpl63RiOTC6vO_6lyANXaFKU_j_wnWrbHP2BXT15xu5keJiqM2tOOND_Emj2HkGlP8nUI48-pkwS6qWFKp-DzKIabQ6T4z1zG7xt7k3kity6wLuv-tuWq1Va7PhOyck9jb6JHSBrA0wair1of5Nc2wBbEDc2ivXOCyn_ks2fJBszmm-1wMcPefe6iufEMkKoPQQrZcLX1iaqoEFOcW5lqXDSXqLSQM23NMAQEFdyU1UpmzYgu36Tx_CLROo7tUPPzn4UocX__OmD_ZQ1C9S_kweTVHg4BhHBC5I9Ig-ocWI_ycr5uy0sIaYwECVhWR7YuyuD_kpg20kM7e56mc4UVnYsk-CJoYC2Wl5JH3-8Ec9pT3nrwXJlas_uEEe0xvCOWt6GmtUSCtz-jRCJjsjXX4WNnIBfGvCWIXUeXf4iNQAXYXhWob1-OIScpOKN533CMaMyO1XJtS34jSPcPbWkMWzKYCQ-apztFSnQNI-DImoNGtVot-HD68xmDtjvUxQLG7Oy7nTCgVHOF3RA7krVB21hCVTJ1u85zFkwZ4JOgCvoaQ-2vOL_Kqh2LLZaZ_QqTNfOYItTa95KAiYNbeA5zM55zy3GNnY2Fhx3m2BdIMnGOYJzpTC0nyOZYTHYSXfV1oRuIENm5Tou-jiWHL_0UygCgA0nEJZgMLqycd1JTRkl2nzfKjIAca0Wo6PrMs3CdGkBx5D3QMNWjfBiwOB6JdRK0Sr3NUd1RHpSCptn_No1QHMh0ADu2vL6lU09rcpfpJN5tA29nZzHIoDxnA1f5BxHG6ltjOHVnA3R-ikfRT1zsS9LzWzeZWOw60hs8AVVYOItUXoCHQud2GtTvaRcSCCnHaMomtm5VqiWpyHUVkxLMA2nJP9lP3RVE5sdAdAOadcxPdoMK-r6ZRjVQH6haHC29U7UvOr3lHEr5KopzS_KcfH-sy3O_Wdh8ONTDP34xwc664c8NW0EikMFxhQg6-_aD6yu-7J3glr5OcIWfTITwYkSF0HiTgz0Wdj1eUa0jyREfc__dE8XQZET-7Rcea1_KaD-p3mcDCEyFBs_ERz-TJglUYOMpfhpQv5xLjvj3ZH6xSxFpYxSNRwUG2uj5A4l3VceqqclGHpJlu6bdmE2esQWNfafRbBP-hHNseNrgr_wPBgL7mqCxD0pXIwKieGkoIac157c8QuwWUkwElFClWhDmgW4JorYsv9QUyaXXMsKTW_CKByV9tu0JrUu1QdQx4oVXUN0zcmg9JKPQGIvGJoHy6vJ73luil0hFhwQrY46jSSx-1ayTUF10Aan1ngCQPfdnN9VUTUSXtk9qoXBI-0hRkHmbeHElg-lPoScq6RIgClHgOVlx-9ZKelCBDQBpYvIXQqdLwmUskCQCfOq4bNdVd35kSjSpY1a6NqbKUc_K0yFWaGAq4SQsUTeC5fs1OdY8hzSQrXG7Dp_s7XgDSrcaX7OJHJVfNhCAfItdclvnm7dLk- -KAcd5i6nS8wzIhd7W_vLf_H2OVm00]--></g></svg>