<svg xmlns="http://www.w3.org/2000/svg" xmlns:xlink="http://www.w3.org/1999/xlink" contentStyleType="text/css" data-diagram-type="DESCRIPTION" height="1231px" preserveAspectRatio="none" style="width:1619px;height:1231px;background:#FFFFFF;" version="1.1" viewBox="0 0 1619 1231" width="1619px" zoomAndPan="magnify"><title>OS Simulator - Detailed Overview</title><defs/><g><g class="title" data-source-line="1"><text fill="#000000" font-family="Courier" font-size="14" font-weight="bold" lengthAdjust="spacing" textLength="269.7188" x="667.6406" y="22.9951">OS&#160;Simulator&#160;-&#160;Detailed&#160;Overview</text></g><!--cluster SYSTEM--><g class="cluster" data-entity="SYSTEM" data-source-line="36" data-uid="ent0002" id="cluster_SYSTEM"><rect fill="#FFFFFF" height="964" rx="2.5" ry="2.5" style="stroke:#424242;stroke-width:1;" width="1572.5" x="40.5" y="261.2969"/><text fill="#000000" font-family="Courier" font-size="12" font-style="italic" lengthAdjust="spacing" textLength="72.2461" x="790.627" y="274.4355">&#171;boundary&#187;</text><text fill="#000000" font-family="Courier" font-size="12" font-weight="bold" lengthAdjust="spacing" textLength="86.6953" x="783.4023" y="288.4043">OS&#160;Simulator</text></g><!--cluster APP--><g class="cluster" data-entity="APP" data-source-line="37" data-uid="ent0003" id="cluster_APP"><path d="M75,358.2969 L198.8184,358.2969 A3.75,3.75 0 0 1 201.3184,360.7969 L208.3184,378.2656 L569.76,378.2656 A2.5,2.5 0 0 1 572.26,380.7656 L572.26,487.7969 A2.5,2.5 0 0 1 569.76,490.2969 L75,490.2969 A2.5,2.5 0 0 1 72.5,487.7969 L72.5,360.7969 A2.5,2.5 0 0 1 75,358.2969" fill="#E8DAFF" style="stroke:#000000;stroke-width:1.5;"/><line style="stroke:#000000;stroke-width:1.5;" x1="72.5" x2="208.3184" y1="378.2656" y2="378.2656"/><text fill="#000000" font-family="Courier" font-size="12" font-weight="bold" lengthAdjust="spacing" textLength="122.8184" x="76.5" y="371.4355">Application&#160;Layer</text></g><!--cluster CORE--><g class="cluster" data-entity="CORE" data-source-line="45" data-uid="ent0009" id="cluster_CORE"><path d="M383.94,681.2969 L464.4107,681.2969 A3.75,3.75 0 0 1 466.9107,683.7969 L473.9107,701.2656 L1578.5,701.2656 A2.5,2.5 0 0 1 1581,703.7656 L1581,940.7969 A2.5,2.5 0 0 1 1578.5,943.2969 L383.94,943.2969 A2.5,2.5 0 0 1 381.44,940.7969 L381.44,683.7969 A2.5,2.5 0 0 1 383.94,681.2969" fill="#D6E5FA" style="stroke:#000000;stroke-width:1.5;"/><line style="stroke:#000000;stroke-width:1.5;" x1="381.44" x2="473.9107" y1="701.2656" y2="701.2656"/><text fill="#000000" font-family="Courier" font-size="12" font-weight="bold" lengthAdjust="spacing" textLength="79.4707" x="385.44" y="694.4355">Core&#160;Engine</text></g><!--cluster IOZONE--><g class="cluster" data-entity="IOZONE" data-source-line="59" data-uid="ent0021" id="cluster_IOZONE"><path d="M614.76,323.2969 L709.6799,323.2969 A3.75,3.75 0 0 1 712.1799,325.7969 L719.1799,343.2656 L960.04,343.2656 A2.5,2.5 0 0 1 962.54,345.7656 L962.54,452.7969 A2.5,2.5 0 0 1 960.04,455.2969 L614.76,455.2969 A2.5,2.5 0 0 1 612.26,452.7969 L612.26,325.7969 A2.5,2.5 0 0 1 614.76,323.2969" fill="#FDE7D6" style="stroke:#000000;stroke-width:1.5;"/><line style="stroke:#000000;stroke-width:1.5;" x1="612.26" x2="719.1799" y1="343.2656" y2="343.2656"/><text fill="#000000" font-family="Courier" font-size="12" font-weight="bold" lengthAdjust="spacing" textLength="93.9199" x="616.26" y="336.4355">I/O&#160;Subsystem</text></g><!--cluster MEM--><g class="cluster" data-entity="MEM" data-source-line="65" data-uid="ent0025" id="cluster_MEM"><path d="M614.76,509.2969 L738.5784,509.2969 A3.75,3.75 0 0 1 741.0784,511.7969 L748.0784,529.2656 L771.68,529.2656 A2.5,2.5 0 0 1 774.18,531.7656 L774.18,638.7969 A2.5,2.5 0 0 1 771.68,641.2969 L614.76,641.2969 A2.5,2.5 0 0 1 612.26,638.7969 L612.26,511.7969 A2.5,2.5 0 0 1 614.76,509.2969" fill="#E1F5E0" style="stroke:#000000;stroke-width:1.5;"/><line style="stroke:#000000;stroke-width:1.5;" x1="612.26" x2="748.0784" y1="529.2656" y2="529.2656"/><text fill="#000000" font-family="Courier" font-size="12" font-weight="bold" lengthAdjust="spacing" textLength="122.8184" x="616.26" y="522.4355">Memory&#160;Management</text></g><!--cluster SCHEDZONE--><g class="cluster" data-entity="SCHEDZONE" data-source-line="69" data-uid="ent0027" id="cluster_SCHEDZONE"><path d="M620.98,983.2969 L773.6968,983.2969 A3.75,3.75 0 0 1 776.1968,985.7969 L783.1968,1003.2656 L1379.29,1003.2656 A2.5,2.5 0 0 1 1381.79,1005.7656 L1381.79,1190.7969 A2.5,2.5 0 0 1 1379.29,1193.2969 L620.98,1193.2969 A2.5,2.5 0 0 1 618.48,1190.7969 L618.48,985.7969 A2.5,2.5 0 0 1 620.98,983.2969" fill="#FFF2CC" style="stroke:#000000;stroke-width:1.5;"/><line style="stroke:#000000;stroke-width:1.5;" x1="618.48" x2="783.1968" y1="1003.2656" y2="1003.2656"/><text fill="#000000" font-family="Courier" font-size="12" font-weight="bold" lengthAdjust="spacing" textLength="151.7168" x="622.48" y="996.4355">Scheduling&#160;Strategies</text></g><!--cluster External Interfaces--><g class="cluster" data-entity="External Interfaces" data-source-line="85" data-uid="ent0039" id="cluster_External Interfaces"><path d="M1231.21,43.2969 L1369.4776,43.2969 A3.75,3.75 0 0 1 1371.9776,45.7969 L1378.9776,63.2656 L1378.68,63.2656 A2.5,2.5 0 0 1 1381.18,65.7656 L1381.18,234.7969 A2.5,2.5 0 0 1 1378.68,237.2969 L1231.21,237.2969 A2.5,2.5 0 0 1 1228.71,234.7969 L1228.71,45.7969 A2.5,2.5 0 0 1 1231.21,43.2969" fill="#F8CECC" style="stroke:#000000;stroke-width:1.5;"/><line style="stroke:#000000;stroke-width:1.5;" x1="1228.71" x2="1378.9776" y1="63.2656" y2="63.2656"/><text fill="#000000" font-family="Courier" font-size="12" font-weight="bold" lengthAdjust="spacing" textLength="137.2676" x="1232.71" y="56.4355">External&#160;Interfaces</text></g><!--entity MAIN--><g class="entity" data-entity="MAIN" data-source-line="38" data-uid="ent0004" id="entity_MAIN"><rect fill="#E8DAFF" height="33.9688" rx="2.5" ry="2.5" style="stroke:#424242;stroke-width:0.5;" width="48.8984" x="96.5" y="398.3169"/><text fill="#141414" font-family="Courier" font-size="12" lengthAdjust="spacing" textLength="28.8984" x="106.5" y="419.4555">Main</text></g><!--entity SR--><g class="entity" data-entity="SR" data-source-line="39" data-uid="ent0005" id="entity_SR"><rect fill="#E8DAFF" height="33.9688" rx="2.5" ry="2.5" style="stroke:#424242;stroke-width:0.5;" width="135.5938" x="209.84" y="398.3169"/><text fill="#141414" font-family="Courier" font-size="12" lengthAdjust="spacing" textLength="115.5938" x="219.84" y="419.4555">SimulationRunner</text></g><!--entity SC--><g class="entity" data-entity="SC" data-source-line="40" data-uid="ent0006" id="entity_SC"><rect fill="#E8DAFF" height="33.9688" rx="2.5" ry="2.5" style="stroke:#424242;stroke-width:0.5;" width="142.8184" x="405.44" y="398.3169"/><text fill="#141414" font-family="Courier" font-size="12" lengthAdjust="spacing" textLength="122.8184" x="415.44" y="419.4555">SimulationContext</text></g><!--entity SCH--><g class="entity" data-entity="SCH" data-source-line="46" data-uid="ent0010" id="entity_SCH"><rect fill="#D6E5FA" height="33.9688" rx="2.5" ry="2.5" style="stroke:#424242;stroke-width:0.5;" width="142.8184" x="405.44" y="776.3169"/><text fill="#141414" font-family="Courier" font-size="12" lengthAdjust="spacing" textLength="122.8184" x="415.44" y="797.4555">SystemCallHandler</text></g><!--entity CLK--><g class="entity" data-entity="CLK" data-source-line="47" data-uid="ent0011" id="entity_CLK"><rect fill="#D6E5FA" height="33.9688" rx="2.5" ry="2.5" style="stroke:#424242;stroke-width:0.5;" width="128.3691" x="629.03" y="729.3169"/><text fill="#141414" font-family="Courier" font-size="12" lengthAdjust="spacing" textLength="108.3691" x="639.03" y="750.4555">SimulationClock</text></g><!--entity PCB--><g class="entity" data-entity="PCB" data-source-line="48" data-uid="ent0012" id="entity_PCB"><rect fill="#D6E5FA" height="33.9688" rx="2.5" ry="2.5" style="stroke:#424242;stroke-width:0.5;" width="157.2676" x="817.4" y="729.3169"/><text fill="#141414" font-family="Courier" font-size="12" lengthAdjust="spacing" textLength="137.2676" x="827.4" y="750.4555">ProcessControlBlock</text></g><!--entity SLICE--><g class="entity" data-entity="SLICE" data-source-line="49" data-uid="ent0013" id="entity_SLICE"><rect fill="#D6E5FA" height="33.9688" rx="2.5" ry="2.5" style="stroke:#424242;stroke-width:0.5;" width="121.1445" x="1045.5" y="729.3169"/><text fill="#141414" font-family="Courier" font-size="12" lengthAdjust="spacing" textLength="101.1445" x="1055.5" y="750.4555">ExecutionSlice</text></g><!--entity REPORT--><g class="entity" data-entity="REPORT" data-source-line="50" data-uid="ent0014" id="entity_REPORT"><rect fill="#D6E5FA" height="33.9688" rx="2.5" ry="2.5" style="stroke:#424242;stroke-width:0.5;" width="113.9199" x="1247.49" y="729.3169"/><text fill="#141414" font-family="Courier" font-size="12" lengthAdjust="spacing" textLength="93.9199" x="1257.49" y="750.4555">ProcessReport</text></g><!--entity SRES--><g class="entity" data-entity="SRES" data-source-line="51" data-uid="ent0015" id="entity_SRES"><rect fill="#D6E5FA" height="33.9688" rx="2.5" ry="2.5" style="stroke:#424242;stroke-width:0.5;" width="135.5938" x="1421.41" y="729.3169"/><text fill="#141414" font-family="Courier" font-size="12" lengthAdjust="spacing" textLength="115.5938" x="1431.41" y="750.4555">SchedulingResult</text></g><!--entity PL--><g class="entity" data-entity="PL" data-source-line="60" data-uid="ent0022" id="entity_PL"><rect fill="#FDE7D6" height="33.9688" rx="2.5" ry="2.5" style="stroke:#424242;stroke-width:0.5;" width="113.9199" x="636.26" y="397.3169"/><text fill="#141414" font-family="Courier" font-size="12" lengthAdjust="spacing" textLength="93.9199" x="646.26" y="418.4555">ProcessLoader</text></g><!--entity JR--><g class="entity" data-entity="JR" data-source-line="61" data-uid="ent0023" id="entity_JR"><rect fill="#FDE7D6" height="33.9688" rx="2.5" ry="2.5" style="stroke:#424242;stroke-width:0.5;" width="85.0215" x="853.52" y="397.3169"/><text fill="#141414" font-family="Courier" font-size="12" lengthAdjust="spacing" textLength="65.0215" x="863.52" y="418.4555">JobReader</text></g><!--entity MM--><g class="entity" data-entity="MM" data-source-line="66" data-uid="ent0026" id="entity_MM"><rect fill="#E1F5E0" height="33.9688" rx="2.5" ry="2.5" style="stroke:#424242;stroke-width:0.5;" width="113.9199" x="636.26" y="583.3169"/><text fill="#141414" font-family="Courier" font-size="12" lengthAdjust="spacing" textLength="93.9199" x="646.26" y="604.4555">MemoryManager</text></g><!--entity SCHED--><g class="entity" data-entity="SCHED" data-source-line="70" data-uid="ent0028" id="entity_SCHED"><rect fill="#FFF2CC" height="47.9375" rx="2.5" ry="2.5" style="stroke:#424242;stroke-width:0.5;" width="101.4707" x="642.48" y="1060.3269"/><text fill="#424242" font-family="Courier" font-size="12" font-style="italic" lengthAdjust="spacing" textLength="79.4707" x="653.48" y="1081.4655">&#171;interface&#187;</text><text fill="#141414" font-family="Courier" font-size="12" lengthAdjust="spacing" textLength="65.0215" x="660.7046" y="1095.4343">Scheduler</text></g><!--entity RR--><g class="entity" data-entity="RR" data-source-line="71" data-uid="ent0029" id="entity_RR"><rect fill="#FFF2CC" height="33.9688" rx="2.5" ry="2.5" style="stroke:#424242;stroke-width:0.5;" width="157.2676" x="817.4" y="1135.3169"/><text fill="#141414" font-family="Courier" font-size="12" lengthAdjust="spacing" textLength="137.2676" x="827.4" y="1156.4555">RoundRobinScheduler</text></g><!--entity PS--><g class="entity" data-entity="PS" data-source-line="72" data-uid="ent0030" id="entity_PS"><rect fill="#FFF2CC" height="33.9688" rx="2.5" ry="2.5" style="stroke:#424242;stroke-width:0.5;" width="142.8184" x="1034.67" y="1083.3169"/><text fill="#141414" font-family="Courier" font-size="12" lengthAdjust="spacing" textLength="122.8184" x="1044.67" y="1104.4555">PriorityScheduler</text></g><!--entity SJF--><g class="entity" data-entity="SJF" data-source-line="73" data-uid="ent0031" id="entity_SJF"><rect fill="#FFF2CC" height="33.9688" rx="2.5" ry="2.5" style="stroke:#424242;stroke-width:0.5;" width="106.6953" x="1251.1" y="1057.3169"/><text fill="#141414" font-family="Courier" font-size="12" lengthAdjust="spacing" textLength="86.6953" x="1261.1" y="1078.4555">SjfScheduler</text></g><!--entity JOB--><g class="entity" data-entity="JOB" data-source-line="86" data-uid="ent0040" id="entity_JOB"><rect fill="#F8CECC" height="47.9375" rx="2.5" ry="2.5" style="stroke:#424242;stroke-width:0.5;" width="70.5723" x="1269.16" y="173.3269"/><text fill="#424242" font-family="Courier" font-size="12" font-style="italic" lengthAdjust="spacing" textLength="43.3477" x="1282.7723" y="194.4655">&#171;file&#187;</text><text fill="#141414" font-family="Courier" font-size="12" lengthAdjust="spacing" textLength="50.5723" x="1279.16" y="208.4343">job.txt</text></g><!--entity CONSOLE--><g class="entity" data-entity="CONSOLE" data-source-line="87" data-uid="ent0041" id="entity_CONSOLE"><rect fill="#F8CECC" height="47.9375" rx="2.5" ry="2.5" style="stroke:#424242;stroke-width:0.5;" width="99.4707" x="1254.71" y="75.3269"/><text fill="#424242" font-family="Courier" font-size="12" font-style="italic" lengthAdjust="spacing" textLength="72.2461" x="1268.3223" y="96.4655">&#171;external&#187;</text><text fill="#141414" font-family="Courier" font-size="12" lengthAdjust="spacing" textLength="79.4707" x="1264.71" y="110.4343">Console&#160;I/O</text></g><!--entity USER--><g class="entity" data-entity="USER" data-source-line="90" data-uid="ent0042" id="entity_USER"><ellipse cx="120.9484" cy="133.8169" fill="#F8CECC" rx="8" ry="8" style="stroke:#181818;stroke-width:0.5;"/><path d="M120.9484,141.8169 L120.9484,168.8169 M107.9484,149.8169 L133.9484,149.8169 M120.9484,168.8169 L107.9484,183.8169 M120.9484,168.8169 L133.9484,183.8169" fill="none" style="stroke:#181818;stroke-width:0.5;"/><text fill="#000000" font-family="Courier" font-size="12" lengthAdjust="spacing" textLength="57.7969" x="92.05" y="196.4555">CLI&#160;User</text></g><!--link MAIN to SR--><!--link MAIN to SR--><g class="link" data-entity-1="MAIN" data-entity-2="SR" data-source-line="95" data-uid="lnk47" id="link_MAIN_SR"><path d="M145.77,409.6369 C163.03,409.6369 180.93,409.6369 203.65,409.6369" fill="none" id="MAIN-to-SR-1" style="stroke:#1F1F1F;stroke-width:1.3;"/><polygon fill="#1F1F1F" points="209.65,409.6369,200.65,405.6369,204.65,409.6369,200.65,413.6369,209.65,409.6369" style="stroke:#1F1F1F;stroke-width:1.3;"/><text fill="#5B3D91" font-family="Courier" font-size="11" lengthAdjust="spacing" textLength="99.3384" x="77.71" y="406.8473">orchestrate&#160;run</text></g><!--link SR to SC--><!--link SR to SC--><g class="link" data-entity-1="SR" data-entity-2="SC" data-source-line="96" data-uid="lnk48" id="link_SR_SC"><path d="M345.92,409.6369 C365.06,409.6369 379.93,409.6369 399.26,409.6369" fill="none" id="SR-to-SC-1" style="stroke:#1F1F1F;stroke-width:1.3;"/><polygon fill="#1F1F1F" points="405.26,409.6369,396.26,405.6369,400.26,409.6369,396.26,413.6369,405.26,409.6369" style="stroke:#1F1F1F;stroke-width:1.3;"/><text fill="#5B3D91" font-family="Courier" font-size="11" lengthAdjust="spacing" textLength="125.8286" x="249.59" y="406.8473">bootstrap&#160;&amp;&#160;monitor</text></g><!--link SCH to CLK--><!--link SCH to CLK--><g class="link" data-entity-1="SCH" data-entity-2="CLK" data-source-line="102" data-uid="lnk54" id="link_SCH_CLK"><path d="M548.47,786.0169 C591.51,786.0169 638,786.0169 638,786.0169 C638,786.0169 638,780.1369 638,769.3769" fill="none" id="SCH-to-CLK-1" style="stroke:#1F1F1F;stroke-width:1.3;"/><polygon fill="#1F1F1F" points="638,763.3769,634,772.3769,638,768.3769,642,772.3769,638,763.3769" style="stroke:#1F1F1F;stroke-width:1.3;"/><text fill="#0F3E8A" font-family="Courier" font-size="11" lengthAdjust="spacing" textLength="66.2256" x="605.56" y="797.2273">tick&#160;clock</text></g><!--link CLK to PCB--><!--link PCB to SLICE--><!--link SLICE to REPORT--><!--link REPORT to SRES--><!--link REPORT to SRES--><g class="link" data-entity-1="REPORT" data-entity-2="SRES" data-source-line="110" data-uid="lnk62" id="link_REPORT_SRES"><path d="M1361.89,740.6369 C1380.64,740.6369 1395.64,740.6369 1415.1,740.6369" fill="none" id="REPORT-to-SRES-1" style="stroke:#1F1F1F;stroke-width:1.3;"/><polygon fill="#1F1F1F" points="1421.1,740.6369,1412.1,736.6369,1416.1,740.6369,1412.1,744.6369,1421.1,740.6369" style="stroke:#1F1F1F;stroke-width:1.3;"/><text fill="#0F3E8A" font-family="Courier" font-size="11" lengthAdjust="spacing" textLength="99.3384" x="1291.49" y="737.8473">aggregate&#160;cycle</text></g><!--link PL to JR--><!--link PL to JR--><g class="link" data-entity-1="PL" data-entity-2="JR" data-source-line="98" data-uid="lnk50" id="link_PL_JR"><path d="M750.52,405.8069 C783.09,405.8069 817.19,405.8069 847.04,405.8069" fill="none" id="PL-to-JR-1" style="stroke:#1F1F1F;stroke-width:1.3;"/><polygon fill="#1F1F1F" points="853.04,405.8069,844.04,401.8069,848.04,405.8069,844.04,409.8069,853.04,405.8069" style="stroke:#1F1F1F;stroke-width:1.3;"/><text fill="#9C4E2F" font-family="Courier" font-size="11" lengthAdjust="spacing" textLength="112.5835" x="802.78" y="403.0173">read&#160;&amp;&#160;parse&#160;jobs</text></g><!--link SCHED to RR--><!--reverse link SCHED to RR--><g class="link" data-entity-1="SCHED" data-entity-2="RR" data-source-line="104" data-uid="lnk56" id="link_SCHED_RR"><path d="M711,1126.5769 C711,1144.0769 711,1146.6369 711,1146.6369 C711,1146.6369 766.73,1146.6369 817.03,1146.6369" fill="none" id="SCHED-backto-RR" style="stroke:#1F1F1F;stroke-width:1.3;stroke-dasharray:7,7;"/><polygon fill="none" points="711,1108.5769,705,1126.5769,717,1126.5769,711,1108.5769" style="stroke:#1F1F1F;stroke-width:1.3;"/></g><!--link RR to PS--><!--link PS to SJF--><!--link APP to CORE--><!--link CORE to SCHEDZONE--><!--link APP to IOZONE--><!--link CORE to MEM--><!--link USER to MAIN--><g class="link" data-entity-1="USER" data-entity-2="MAIN" data-source-line="92" data-uid="lnk43" id="link_USER_MAIN"><path d="M113,199.6269 C113,255.1569 113,351.3369 113,391.9669" fill="none" id="USER-to-MAIN" style="stroke:#1F1F1F;stroke-width:1.3;"/><polygon fill="#1F1F1F" points="113,397.9669,117,388.9669,113,392.9669,109,388.9669,113,397.9669" style="stroke:#1F1F1F;stroke-width:1.3;"/><text fill="#5B3D91" font-family="Courier" font-size="11" lengthAdjust="spacing" textLength="105.9609" x="7" y="310.0073">select&#160;algorithm</text></g><!--link MAIN to CONSOLE--><g class="link" data-entity-1="MAIN" data-entity-2="CONSOLE" data-source-line="93" data-uid="lnk44" id="link_MAIN_CONSOLE"><path d="M130,398.0169 C130,386.2469 130,372.8069 130,372.8069 C130,372.8069 1262,372.8069 1262,372.8069 C1262,372.8069 1262,196.5069 1262,129.5669" fill="none" id="MAIN-to-CONSOLE" style="stroke:#1F1F1F;stroke-width:1.3;"/><polygon fill="#1F1F1F" points="1262,123.5669,1258,132.5669,1262,128.5669,1266,132.5669,1262,123.5669" style="stroke:#1F1F1F;stroke-width:1.3;"/><text fill="#A34747" font-family="Courier" font-size="11" lengthAdjust="spacing" textLength="132.4512" x="675.01" y="384.0173">emit&#160;menus&#160;&amp;&#160;metrics</text></g><!--reverse link USER to CONSOLE--><g class="link" data-entity-1="USER" data-entity-2="CONSOLE" data-source-line="94" data-uid="lnk46" id="link_USER_CONSOLE"><path d="M156.22,149.3169 C334.35,149.3169 1259,149.3169 1259,149.3169 C1259,149.3169 1259,136.4169 1259,123.7269" fill="none" id="USER-backto-CONSOLE" style="stroke:#1F1F1F;stroke-width:1.3;"/><polygon fill="#1F1F1F" points="150.22,149.3169,159.22,153.3169,155.22,149.3169,159.22,145.3169,150.22,149.3169" style="stroke:#1F1F1F;stroke-width:1.3;"/><text fill="#A34747" font-family="Courier" font-size="11" lengthAdjust="spacing" textLength="72.8481" x="644.41" y="160.5273">show&#160;output</text></g><!--link SC to PL--><g class="link" data-entity-1="SC" data-entity-2="PL" data-source-line="97" data-uid="lnk49" id="link_SC_PL"><path d="M548.59,414.7969 C577.01,414.7969 603.22,414.7969 630.02,414.7969" fill="none" id="SC-to-PL" style="stroke:#1F1F1F;stroke-width:1.3;"/><polygon fill="#1F1F1F" points="636.02,414.7969,627.02,410.7969,631.02,414.7969,627.02,418.7969,636.02,414.7969" style="stroke:#1F1F1F;stroke-width:1.3;"/><text fill="#9C4E2F" font-family="Courier" font-size="11" lengthAdjust="spacing" textLength="99.3384" x="492.31" y="426.0073">request&#160;batches</text></g><!--link PL to PCB--><g class="link" data-entity-1="PL" data-entity-2="PCB" data-source-line="99" data-uid="lnk51" id="link_PL_PCB"><path d="M750.47,422.7869 C790.19,422.7869 836,422.7869 836,422.7869 C836,422.7869 836,655.7069 836,722.9069" fill="none" id="PL-to-PCB" style="stroke:#1F1F1F;stroke-width:1.3;"/><polygon fill="#1F1F1F" points="836,728.9069,840,719.9069,836,723.9069,832,719.9069,836,728.9069" style="stroke:#1F1F1F;stroke-width:1.3;"/><text fill="#0F3E8A" font-family="Courier" font-size="11" lengthAdjust="spacing" textLength="99.3384" x="736" y="544.2873">instantiate&#160;PCB</text></g><!--link PL to MM--><g class="link" data-entity-1="PL" data-entity-2="MM" data-source-line="100" data-uid="lnk52" id="link_PL_MM"><path d="M665,431.4669 C665,466.8069 665,541.3669 665,576.9069" fill="none" id="PL-to-MM" style="stroke:#1F1F1F;stroke-width:1.3;"/><polygon fill="#1F1F1F" points="665,582.9069,669,573.9069,665,577.9069,661,573.9069,665,582.9069" style="stroke:#1F1F1F;stroke-width:1.3;"/><text fill="#2F6F36" font-family="Courier" font-size="11" lengthAdjust="spacing" textLength="99.3384" x="565" y="504.3973">allocate&#160;memory</text></g><!--link SC to SCH--><g class="link" data-entity-1="SC" data-entity-2="SCH" data-source-line="101" data-uid="lnk53" id="link_SC_SCH"><path d="M441,432.7669 C441,496.0769 441,707.0069 441,770.0069" fill="none" id="SC-to-SCH" style="stroke:#1F1F1F;stroke-width:1.3;"/><polygon fill="#1F1F1F" points="441,776.0069,445,767.0069,441,771.0069,437,767.0069,441,776.0069" style="stroke:#1F1F1F;stroke-width:1.3;"/><text fill="#0F3E8A" font-family="Courier" font-size="11" lengthAdjust="spacing" textLength="92.7158" x="348" y="615.5973">dispatch&#160;calls</text></g><!--link SCH to SCHED--><g class="link" data-entity-1="SCH" data-entity-2="SCHED" data-source-line="103" data-uid="lnk55" id="link_SCH_SCHED"><path d="M548.57,805.4269 C602.81,805.4269 668,805.4269 668,805.4269 C668,805.4269 668,986.1869 668,1054.0369" fill="none" id="SCH-to-SCHED" style="stroke:#1F1F1F;stroke-width:1.3;"/><polygon fill="#1F1F1F" points="668,1060.0369,672,1051.0369,668,1055.0369,664,1051.0369,668,1060.0369" style="stroke:#1F1F1F;stroke-width:1.3;"/><text fill="#A68A00" font-family="Courier" font-size="11" lengthAdjust="spacing" textLength="92.7158" x="575" y="884.2273">schedule&#160;ready</text></g><!--reverse link SCHED to PS--><g class="link" data-entity-1="SCHED" data-entity-2="PS" data-source-line="105" data-uid="lnk57" id="link_SCHED_PS"><path d="M762.25,1095.7869 C835.18,1095.7869 951.5,1095.7869 1034.38,1095.7869" fill="none" id="SCHED-backto-PS" style="stroke:#1F1F1F;stroke-width:1.3;stroke-dasharray:7,7;"/><polygon fill="none" points="744.25,1095.7869,762.25,1101.7869,762.25,1089.7869,744.25,1095.7869" style="stroke:#1F1F1F;stroke-width:1.3;"/></g><!--reverse link SCHED to SJF--><g class="link" data-entity-1="SCHED" data-entity-2="SJF" data-source-line="106" data-uid="lnk58" id="link_SCHED_SJF"><path d="M762.28,1071.8169 C876.62,1071.8169 1134.31,1071.8169 1250.92,1071.8169" fill="none" id="SCHED-backto-SJF" style="stroke:#1F1F1F;stroke-width:1.3;stroke-dasharray:7,7;"/><polygon fill="none" points="744.28,1071.8169,762.28,1077.8169,762.28,1065.8169,744.28,1071.8169" style="stroke:#1F1F1F;stroke-width:1.3;"/></g><!--link SCH to SLICE--><g class="link" data-entity-1="SCH" data-entity-2="SLICE" data-source-line="107" data-uid="lnk59" id="link_SCH_SLICE"><path d="M548.52,795.7269 C713.68,795.7269 1107,795.7269 1107,795.7269 C1107,795.7269 1107,783.8369 1107,769.5869" fill="none" id="SCH-to-SLICE" style="stroke:#1F1F1F;stroke-width:1.3;"/><polygon fill="#1F1F1F" points="1107,763.5869,1103,772.5869,1107,768.5869,1111,772.5869,1107,763.5869" style="stroke:#1F1F1F;stroke-width:1.3;"/><text fill="#0F3E8A" font-family="Courier" font-size="11" lengthAdjust="spacing" textLength="86.0933" x="844.83" y="792.9373">slice&#160;quantum</text></g><!--link SCH to MM--><g class="link" data-entity-1="SCH" data-entity-2="MM" data-source-line="108" data-uid="lnk60" id="link_SCH_MM"><path d="M525,775.8269 C525,728.3169 525,600.2969 525,600.2969 C525,600.2969 581.07,600.2969 629.8,600.2969" fill="none" id="SCH-to-MM" style="stroke:#1F1F1F;stroke-width:1.3;"/><polygon fill="#1F1F1F" points="635.8,600.2969,626.8,596.2969,630.8,600.2969,626.8,604.2969,635.8,600.2969" style="stroke:#1F1F1F;stroke-width:1.3;"/><text fill="#2F6F36" font-family="Courier" font-size="11" lengthAdjust="spacing" textLength="112.5835" x="412" y="643.8773">manage&#160;mem&#160;events</text></g><!--link SCH to REPORT--><g class="link" data-entity-1="SCH" data-entity-2="REPORT" data-source-line="109" data-uid="lnk61" id="link_SCH_REPORT"><path d="M548.53,800.5769 C749.71,800.5769 1305,800.5769 1305,800.5769 C1305,800.5769 1305,785.6369 1305,769.7669" fill="none" id="SCH-to-REPORT" style="stroke:#1F1F1F;stroke-width:1.3;"/><polygon fill="#1F1F1F" points="1305,763.7669,1301,772.7669,1305,768.7669,1309,772.7669,1305,763.7669" style="stroke:#1F1F1F;stroke-width:1.3;"/><text fill="#0F3E8A" font-family="Courier" font-size="11" lengthAdjust="spacing" textLength="99.3384" x="845.17" y="811.7873">persist&#160;metrics</text></g><!--link SCH to PCB--><g class="link" data-entity-1="SCH" data-entity-2="PCB" data-source-line="111" data-uid="lnk63" id="link_SCH_PCB"><path d="M548.5,790.8669 C661.9,790.8669 870,790.8669 870,790.8669 C870,790.8669 870,782.1769 870,769.6569" fill="none" id="SCH-to-PCB" style="stroke:#1F1F1F;stroke-width:1.3;"/><polygon fill="#1F1F1F" points="870,763.6569,866,772.6569,870,768.6569,874,772.6569,870,763.6569" style="stroke:#1F1F1F;stroke-width:1.3;"/><text fill="#0F3E8A" font-family="Courier" font-size="11" lengthAdjust="spacing" textLength="79.4707" x="723.86" y="802.0773">update&#160;state</text></g><!--link SC to REPORT--><g class="link" data-entity-1="SC" data-entity-2="REPORT" data-source-line="112" data-uid="lnk64" id="link_SC_REPORT"><path d="M502,432.6569 C502,444.0269 502,456.7869 502,456.7869 C502,456.7869 1252,456.7869 1252,456.7869 C1252,456.7869 1252,660.7269 1252,723.0569" fill="none" id="SC-to-REPORT" style="stroke:#1F1F1F;stroke-width:1.3;"/><polygon fill="#1F1F1F" points="1252,729.0569,1256,720.0569,1252,724.0569,1248,720.0569,1252,729.0569" style="stroke:#1F1F1F;stroke-width:1.3;"/><text fill="#0F3E8A" font-family="Courier" font-size="11" lengthAdjust="spacing" textLength="86.0933" x="914.06" y="467.9973">summarize&#160;sim</text></g><!--link JR to JOB--><g class="link" data-entity-1="JR" data-entity-2="JOB" data-source-line="113" data-uid="lnk65" id="link_JR_JOB"><path d="M939.03,414.2969 C1044.03,414.2969 1305,414.2969 1305,414.2969 C1305,414.2969 1305,283.8469 1305,227.3469" fill="none" id="JR-to-JOB" style="stroke:#1F1F1F;stroke-width:1.3;"/><polygon fill="#1F1F1F" points="1305,221.3469,1301,230.3469,1305,226.3469,1309,230.3469,1305,221.3469" style="stroke:#1F1F1F;stroke-width:1.3;"/><text fill="#A34747" font-family="Courier" font-size="11" lengthAdjust="spacing" textLength="72.8481" x="1145.49" y="425.5073">stream&#160;jobs</text></g><!--link REPORT to CONSOLE--><g class="link" data-entity-1="REPORT" data-entity-2="CONSOLE" data-source-line="114" data-uid="lnk66" id="link_REPORT_CONSOLE"><path d="M1266,728.9869 C1266,639.3669 1266,234.0669 1266,129.5169" fill="none" id="REPORT-to-CONSOLE" style="stroke:#1F1F1F;stroke-width:1.3;"/><polygon fill="#1F1F1F" points="1266,123.5169,1262,132.5169,1266,128.5169,1270,132.5169,1266,123.5169" style="stroke:#1F1F1F;stroke-width:1.3;"/><text fill="#A34747" font-family="Courier" font-size="11" lengthAdjust="spacing" textLength="92.7158" x="1267" y="437.4673">emit&#160;summaries</text></g><!--SRC=[ZLPBSzis43wBlm8Zp_Hcr_93TZ8UpSWKER4YMHhIERIT7Y0IbX2J00E0jjKq_xsxu4DyA6sjWqdWszrltpJS98oiGXBoD4-eaOgSaXapb2Si9gjNfbuvUtCS_S95HXLDoNTdiA7HorR9NCIkJ43YnBT_pY3XWfbzneXKPYUTGIJJJ0ecJ6ZsO4Qno52nJPWpq3iQopSkjkIP9XeEOlPCyyJuKfX7cZBYobnnfbeN8V-BaT55Go-o6RIkx5j9QtI5FpYxbofcgZozki0Vd8Q6AIQHRqEckltHjNBVTlhkZhs3lA39P081k7Kzrps6UeP0DX6Wjmv3eVSejvwU3JvJjRUwod23hWnmTClMD8uncAtWX729XrVdpa38c6cMaMjuLbIyuFCOdgTAoRSgN3x-ohDc6BldHR17vSdJZaSlWcbDHcUNpW_7ITYp8KOInRSxGsAE_d8f7EVW-B1PSKD2DGb_2v-y9Mav-htsZmodMPRmYA8Yig1xLaXDrsjoujtEfhvlWtb8sP9oWOZbzE6nWhG0fNdG5-H2C6L91Fy1TS5xoBl5kWsijNBwnux7CHD_GcMBqmbemo8B-kUs31g-kL8nueajT8_robq57ZcPZRrhVzfnAznhmrAN9iadAkAafEr-gk0_uvt8wCMgNdm-2bqh6K4AqJyba_iAldRlZyAzTnRbg3Y4f33BOV7WUl-cEc0PJ0M41jvw5JmTPnpjM9p36Da6J4FN5qdnmWOOdUr65Bo26_IjUmCEm0swqSi24aPzbdZtjk08roNPVcwzi9F5XrzN9CmtscR8vl5XzVlg4OBYpxoRsRYJoJ8i2qdZ8elhHOLiuUPo4x0ACmyQ613eqfe77L9BbagrXsuGy9g2Faji2PrsuetyQ- -yspOMNy2jnMMDx6W-f8g4Hb73jfpfOLcEtgpqtFSlNBTRmuLaNRlU3DgUGsEfPngnSi1Ts75w40fmB0HomqLBF0YEejUAIyNDleLTXqUnuTVdDgEvty0L_7hbWQqTz5jx7M9UmdwvpFqYV3YmwakiN6XrPs0RldbSXx0ZKQeh2gihLrv2Sd4ArudooZr57geGGvhAVOIPEKHY-5LkpinxKIFprJtfhwy666Q5bZ3BeUxBgVKOhXOUERePWH2DyEjYw2uUo1TTpkyleHVK6CU-dTgrWNxWJFr8xYBSGXzFhkylPnz64yqIs2A49bjCy2vrYj5R2LKa3dBJowkRgvi9IxaXq02v9h_0VwDuf9qAVOeh2wGjWPwetiat8dEJvQQqLW-1FZ-fe9QqRGYYSk7W_A_dVX- -aT8WEaDMKd08aGEuIWHQ_23omRtoBlo9Ojzoi40srA0f1yT0tVx7u3G6vV3nfXc11BS4S30U9CxzI-zsEk52mves75t0-OduEYdB1lx27_kNumai8naXEBN3m_Aly3YjUmPYhZCaJo8GrOwTw8T9tiSR-C0W4Uwa0jjG3htPoDVuTdf-Fj5bDnDq7UdO2VFtsHcsRUCDchNnXYtQP5BiXHuNRHVUjnm2bATjEiTYazf9Yf4Xx1NQfkrjkLnwHZAcDDUchjDg2JMMJr-8RhUARJ4FqJw2R-oceQDvphCOqP1imvf5zpDMEazJgl3RJ_FKcJTQ5MT5lsqCn3yjIgvouF-rQMc8wNy0]--></g></svg>